[color=green]Movies : Animation : HD 720p : English[/color]



[img]http://ecx.images-amazon.com/images/I/6185WuS7qEL.jpg[/img]

Ù…Ù† Ø¯Ø¨Ù„Ø¬ØªÙŠ  Ø¨Ø§Ù„Ø±ØºÙ… Ø®Ù„ÙÙŠØªÙŠ Ø¹Ù† Ø§Ù„Ø¯Ø¨Ù„Ø¬Ù‡ Ù„ÙƒÙ†  ØªØ¹ØªØ¨Ø± Ù‡Ø°Ù‡ Ø¯Ø¨Ù„Ø¬ØªÙŠ Ø§Ù„Ø§ÙˆÙ„Ù‰ Ù„Ù„Ø£ÙÙ„Ø§Ù…  Ù„Ø§Ù†ÙŠ Ù…Ø§Ø§Ø­Ø¨ Ø§Ù„Ø¨Ø¯Ù„Ø¬Ø©  Ù„Ø§Ù† Ø§ØºÙ„Ø¨ Ø§Ù„Ø¯Ø¨Ù„Ø¬Ø§Øª  Ù„Ù…  ÙŠØªÙ… ÙÙŠÙ‡Ø§ Ø¯Ø¨Ù„Ø¬Ø© Ø§Ù„Ø§ØºØ§Ù†ÙŠ   ÙˆÙ‡Ø°Ù‡ Ù…Ù„ÙˆØ­Ø¸Ù‡  ÙƒØ«ÙŠØ±Ù‡ ÙÙŠ Ø§Ù„Ø§ÙÙ„Ø§Ù… Ø³ÙˆØ§Ø¡ Ø¹Ù„Ù‰ Ø§Ù„Ù†Øª Ø§Ùˆ Ø¹Ù„Ù‰ Ø§Ù„ØªÙ„ÙØ§Ø² 
ÙˆØ¬ÙˆØ¯Ø© Ø§Ù„ÙÙŠÙ„Ù… Ø¨Ù„ÙˆØ±Ø§ÙŠ


[img]http://img219.imageshack.us/img219/462/imdbt.png[/img]
[color=red]IMDB:[/color]
[url]http://www.imdb.com/title/tt1646926/[/url]

[color=green]Genre:[/color]
Animation 

[color=red]Language[/color]:[color=navy]Arabic
[/color]



[img]http://img37.imageshack.us/img37/7218/vlcfile.png[/img]
[color=red]Video Information[/color]
[color=navy]Codec ID : XVID[/color]
Codec ID/Hint : XviD
Duration : 2mn 2s
Bit rate : 2 200 Kbps
Display aspect ratio : 16:9
Frame rate : 25.000 fps
Original frame rate : 23.976 fps
Resolution : 24 bits
Colorimetry : 4:2:0
Scan type : Progressive
Stream size : 32.2 MiB (87%)
[color=navy]Resolution:1280x720[/color]


[color=red]Audio Information:[/color]
Format : AC-3
Format/Info : Audio Coding 3
Codec ID : 2000
Duration : 2mn 2s
Bit rate mode : Constant
Bit rate : 320 Kbps
Channel(s) : 6 channels
Channel positions : Front: L C R, Surround: L R, LFE
Sampling rate : 44.1 KHz
Video delay : 4ms
Stream size : 4.68 MiB (13%)






[img]http://img366.imageshack.us/img366/6269/screenpam.png[/img]

[img]http://www.dohaup.com/up/2010-12-31/admin895837810.jpg[/img]

[img]http://www.dohaup.com/up/2010-12-31/admin1830921236.jpg[/img]




[img]http://leetleech.org/images/53646261185610707663.png[/img]

















Sample:




.